<?xml version="1.0" encoding="utf-8"?>
<svg viewBox="181.627 300.197 865.6001 865.6" xmlns="http://www.w3.org/2000/svg">
  <g transform="matrix(1, 0, 0, 1, 0, -1.4210854715202004e-14)">
    <circle style="fill:#EBF1F7;" cx="616.286" cy="732.997" r="421.8"/>
    <g>
      <path style="fill:#303D89;" d="M880.382,1060.4v0.01c-10,8.13-20.37,15.81-31.1,23.01c-66.88,44.92-147.35,71.19-233.94,71.38&#10;&#9;&#9;&#9;&#9;h-0.92c-86.94,0-167.74-26.3-234.86-71.38c-10.73-7.2-21.1-14.88-31.1-23.01v-0.01c7.28-29.42,17.47-55.02,31.26-68.81&#10;&#9;&#9;&#9;&#9;c40.13-40.14,87.09-55.75,142.58-63.96h184.24c55.47,8.21,102.45,23.82,142.58,63.96c6.6,6.6,12.38,15.91,17.4,27.05&#10;&#9;&#9;&#9;&#9;C872.002,1030.77,876.592,1045.06,880.382,1060.4z"/>
    </g>
    <g>
      <path style="fill:#EFA18F;" d="M706.546,927.63c0,0-26.09,33.94-92.12,63.18c-66.03-29.24-92.12-63.18-92.12-63.18&#10;&#9;&#9;&#9;&#9;c18.34-11.69,32.59-29.28,40.25-49.23l103.72-0.05C673.936,898.32,688.196,915.93,706.546,927.63z"/>
    </g>
    <g>
      <path style="fill:#E59689;" d="M673.966,894.1c-36.707,14.526-79.903,11.203-115.36-6.76c1.46-2.92,2.78-5.9,3.95-8.94&#10;&#9;&#9;&#9;&#9;l103.72-0.05C668.366,883.8,670.946,889.08,673.966,894.1z"/>
    </g>
    <g>
      <path style="fill:#4F3535;" d="M445.136,654.04c-2.94-14.06-5.02-28.29-5.79-42.7c-2.34-43.83,8.99-90.35,39.94-121.48&#10;&#9;&#9;&#9;&#9;c38.59-38.84,98.22-46.19,152.95-46.83c19.64-0.23,40.09,0.31,57.6,9.21c17.3,8.81,30.74,28.17,26.73,47.09&#10;&#9;&#9;&#9;&#9;c17.57-3.88,36.59,5.48,47.84,19.8c11.88,15.16,16.54,34.75,18.78,53.88c3.12,26.57,2.13,53.58-2.78,79.86l-12.228,16.883&#10;&#9;&#9;&#9;&#9;H459.821L445.136,654.04z"/>
    </g>
    <g>
      <path style="fill:#F7AD97;" d="M799.086,700.42c-1.4,15.99-2.88,32.34-9.53,46.95c-4.13,9.05-10.99,17.78-20.67,20.11&#10;&#9;&#9;&#9;&#9;c-6.32,1.51-13.59-1.04-17.7-5.75c-12.55,44.06-41.35,92.22-84.91,116.62c0,0-19.79,11-51.85,11s-51.87-10.95-51.87-10.95&#10;&#9;&#9;&#9;&#9;c-43.58-24.36-72.41-72.51-84.98-116.56c-4.12,4.65-11.35,7.14-17.61,5.64c-9.68-2.33-16.54-11.06-20.67-20.11&#10;&#9;&#9;&#9;&#9;c-6.65-14.61-8.13-30.96-9.53-46.95c-0.82-9.37-1.62-19,0.92-28.06c2.16-7.72,7.3-15.06,14.45-18.32c0,0,12.91-6.85,30.04,0&#10;&#9;&#9;&#9;&#9;c0,0,0.59-40.26,22.3-63.74c0,0,119.173,40.295,222.175-1.055c0,0,24.455,20.135,30.365,64.795c0,0,11.31-7.42,30.39-1.17&#10;&#9;&#9;&#9;&#9;c8.88,2.27,15.27,10.62,17.76,19.49C800.706,681.42,799.906,691.05,799.086,700.42z"/>
    </g>
    <path style="fill:#CCD8E2;" d="M1038.082,733c0,232.95-188.84,421.8-421.8,421.8h-0.94c86.59-0.19,167.06-26.46,233.94-71.38&#10;&#9;&#9;&#9;c10.73-7.2,21.1-14.88,31.1-23.01v-0.01c-3.79-15.34-8.38-29.63-13.86-41.76c82.66-77,134.35-186.8,134.35-308.68&#10;&#9;&#9;&#9;c0-143.74-71.89-270.68-181.68-346.83C949.662,434.85,1038.082,573.59,1038.082,733z"/>
    <g>
      <path style="fill:#24326B;" d="M880.382,1060.4v0.01c-10,8.13-20.37,15.81-31.1,23.01c-66.88,44.92-147.35,71.19-233.94,71.38&#10;&#9;&#9;&#9;&#9;c-88.86-0.19-171.27-27.87-239.18-74.97c60.2,33.1,129.36,51.93,202.91,51.93c111.08,0,212.11-42.93,287.45-113.12&#10;&#9;&#9;&#9;&#9;C872.002,1030.77,876.592,1045.06,880.382,1060.4z"/>
    </g>
    <path style="fill:white;" d="M614.426,1165.797c-58.423,0-115.104-11.444-168.468-34.017c-51.539-21.799-97.823-53.004-137.567-92.748&#10;&#9;&#9;&#9;s-70.949-86.028-92.748-137.566c-22.571-53.365-34.016-110.046-34.016-168.469s11.445-115.104,34.016-168.469&#10;&#9;&#9;&#9;c21.799-51.539,53.004-97.823,92.748-137.567s86.028-70.949,137.567-92.748c53.365-22.571,110.045-34.016,168.468-34.016&#10;&#9;&#9;&#9;s115.104,11.445,168.469,34.016c51.539,21.799,97.823,53.004,137.567,92.748s70.949,86.028,92.748,137.567&#10;&#9;&#9;&#9;c22.572,53.365,34.017,110.046,34.017,168.469s-11.444,115.104-34.017,168.469c-21.799,51.538-53.004,97.822-92.748,137.566&#10;&#9;&#9;&#9;s-86.028,70.949-137.567,92.749C729.53,1154.353,672.849,1165.797,614.426,1165.797z M614.426,322.197&#10;&#9;&#9;&#9;c-55.462,0-109.26,10.86-159.898,32.278c-48.916,20.69-92.85,50.312-130.581,88.042c-37.731,37.73-67.353,81.664-88.042,130.581&#10;&#9;&#9;&#9;c-21.418,50.639-32.278,104.437-32.278,159.899c0,55.462,10.86,109.26,32.278,159.898c20.69,48.916,50.312,92.85,88.042,130.581&#10;&#9;&#9;&#9;c37.73,37.73,81.665,67.353,130.581,88.042c50.639,21.418,104.437,32.278,159.898,32.278c55.463,0,109.261-10.86,159.898-32.278&#10;&#9;&#9;&#9;c48.917-20.689,92.851-50.312,130.582-88.042c37.73-37.731,67.353-81.665,88.042-130.581&#10;&#9;&#9;&#9;c21.418-50.639,32.278-104.437,32.278-159.898c0-55.462-10.86-109.26-32.278-159.898c-20.689-48.917-50.312-92.851-88.042-130.581&#10;&#9;&#9;&#9;c-37.731-37.731-81.665-67.353-130.582-88.042C723.687,333.057,669.889,322.197,614.426,322.197z"/>
  </g>
</svg>